<svg xmlns="http://www.w3.org/2000/svg" xmlns:xlink="http://www.w3.org/1999/xlink" x="0" y="0" width="662" height="493" style="
        width:662px;
        height:493px;
        background: transparent;
        fill: none;
">
        <svg xmlns="http://www.w3.org/2000/svg" style="-webkit-user-select: auto;"><g style="-webkit-user-select: auto;"><defs style="-webkit-user-select: auto;"><pattern id=".7259761705124846" width="10" height="10" patternUnits="userSpaceOnUse" style="-webkit-user-select: auto;"><path d="M 10 0 L 0 0 0 10" fill="none" stroke="lightgray" stroke-width="0.5" style="-webkit-user-select: auto;"/></pattern></defs><rect width="100%" height="100%" fill="url(#.7259761705124846)" stroke="lightgray" stroke-width="0.5" style="-webkit-user-select: auto;"/></g></svg>
        
        <svg xmlns="http://www.w3.org/2000/svg" class="role-diagram-draw-area" style="-webkit-user-select: auto;"><g class="shapes-region" style="stroke: black; fill: none; -webkit-user-select: auto;"><g class="arrow-line" style="-webkit-user-select: auto;"><path class="connection real" stroke-dasharray="" d="  M211,391 L210.03,221" style="stroke: rgb(0, 0, 0); stroke-width: 3px; fill: none; fill-opacity: 1; -webkit-user-select: auto;"/><g stroke="none" fill="#000" transform="matrix(0.005759554687996505,0.9999834136273441,-0.9999834136273441,0.005759554687996505,210,216)" style="stroke: none; fill: rgb(0, 0, 0); stroke-width: 3px; -webkit-user-select: auto;"><path d=" M14.29,-6.86 L0,0 L14.29,6.86 Z" style="-webkit-user-select: auto;"/></g></g><g class="arrow-line" style="-webkit-user-select: auto;"><path class="connection real" stroke-dasharray="" d="  M211,391 L413,391.98" style="stroke: rgb(0, 0, 0); stroke-width: 3px; fill: none; fill-opacity: 1; -webkit-user-select: auto;"/><g stroke="none" fill="#000" transform="matrix(-0.9999880590209089,-0.004886902454024558,0.004886902454024558,-0.9999880590209089,418,392)" style="stroke: none; fill: rgb(0, 0, 0); stroke-width: 3px; -webkit-user-select: auto;"><path d=" M14.29,-6.86 L0,0 L14.29,6.86 Z" style="-webkit-user-select: auto;"/></g></g><g class="arrow-line" style="-webkit-user-select: auto;"><path class="connection real" stroke-dasharray="" d="  M418,392 L418,169" style="stroke: rgb(0, 0, 0); stroke-width: 3px; fill: none; fill-opacity: 1; -webkit-user-select: auto;"/><g stroke="none" fill="#000" transform="matrix(3.061616997868383e-16,1,-1,3.061616997868383e-16,418,164)" style="stroke: none; fill: rgb(0, 0, 0); stroke-width: 3px; -webkit-user-select: auto;"><path d=" M14.29,-6.86 L0,0 L14.29,6.86 Z" style="-webkit-user-select: auto;"/></g></g><g class="arrow-line" style="-webkit-user-select: auto;"><path class="connection real" stroke-dasharray="" d="  M210,216 L413.15,165.21" style="stroke: rgb(0, 0, 0); stroke-width: 3px; fill: none; fill-opacity: 1; -webkit-user-select: auto;"/><g stroke="none" fill="#000" transform="matrix(-0.970126596490106,0.24259923079540677,-0.24259923079540677,-0.970126596490106,417.99999999999994,164)" style="stroke: none; fill: rgb(0, 0, 0); stroke-width: 3px; -webkit-user-select: auto;"><path d=" M14.29,-6.86 L0,0 L14.29,6.86 Z" style="-webkit-user-select: auto;"/></g></g><g class="arrow-line" style="-webkit-user-select: auto;"><path class="connection real" stroke-dasharray="" d="  M210,216 L159.42,44.8" style="stroke: rgb(0, 0, 0); stroke-width: 3px; fill: none; fill-opacity: 1; -webkit-user-select: auto;"/><g stroke="none" fill="#000" transform="matrix(0.28334589309322217,0.9590177813091916,-0.9590177813091916,0.28334589309322217,158,40)" style="stroke: none; fill: rgb(0, 0, 0); stroke-width: 3px; -webkit-user-select: auto;"><path d=" M14.29,-6.86 L0,0 L14.29,6.86 Z" style="-webkit-user-select: auto;"/></g></g><g class="arrow-line" style="-webkit-user-select: auto;"><path class="connection real" stroke-dasharray="6 6" d="  M210,216 L398,216" style="stroke: rgb(0, 0, 0); stroke-width: 1px; fill: none; fill-opacity: 1; -webkit-user-select: auto;"/></g><g class="arrow-line" style="-webkit-user-select: auto;"><path class="connection real" stroke-dasharray="" d="  M265,204 C275,202 276,215 268,216" style="stroke: rgb(0, 0, 0); stroke-width: 1px; fill: none; fill-opacity: 1; -webkit-user-select: auto;"/></g><g class="arrow-line" style="-webkit-user-select: auto;"><path class="connection real" stroke-dasharray="" d="  M418,392 L620,392.98" style="stroke: rgb(0, 0, 0); stroke-width: 3px; fill: none; fill-opacity: 1; -webkit-user-select: auto;"/><g stroke="none" fill="#000" transform="matrix(-0.9999880590209089,-0.004886902454024558,0.004886902454024558,-0.9999880590209089,625,393)" style="stroke: none; fill: rgb(0, 0, 0); stroke-width: 3px; -webkit-user-select: auto;"><path d=" M14.29,-6.86 L0,0 L14.29,6.86 Z" style="-webkit-user-select: auto;"/></g></g><g class="arrow-line" style="-webkit-user-select: auto;"><path class="connection real" stroke-dasharray="6 6" d="  M210,216 L210,46" style="stroke: rgb(0, 0, 0); stroke-width: 1px; fill: none; fill-opacity: 1; -webkit-user-select: auto;"/></g><g class="arrow-line" style="-webkit-user-select: auto;"><path class="connection real" stroke-dasharray="" d="  M193,156 C199,150 210,149 210,160" style="stroke: rgb(0, 0, 0); stroke-width: 1px; fill: none; fill-opacity: 1; -webkit-user-select: auto;"/></g><g style="-webkit-user-select: auto;"/></g><g style="-webkit-user-select: auto;"/><g style="-webkit-user-select: auto;"/><g style="-webkit-user-select: auto;"/></svg>
        <svg xmlns="http://www.w3.org/2000/svg" xmlns:xlink="http://www.w3.org/1999/xlink" width="660" height="491" style="width:660px;height:491px;font-family:Asana-Math, Asana;background:transparent;"><g><g><g><g transform="matrix(1,0,0,1,42,324.189998626709)"><path transform="matrix(0.03518999862670898,0,0,-0.03518999862670898,0,0)" d="M328 111L304 94C251 56 203 36 167 36C120 36 91 73 91 133C91 158 94 185 99 214C116 218 225 248 250 259C335 296 374 342 374 404C374 451 340 482 290 482C222 496 112 423 75 349C45 299 15 180 15 113C15 35 59 -11 131 -11C188 -11 244 17 336 92ZM113 274C130 343 150 386 179 412C197 428 228 440 252 440C281 440 300 420 300 388C300 344 265 297 213 272C185 258 149 247 104 237Z" stroke="rgb(0,0,0)" stroke-opacity="1" stroke-width="24" fill="rgb(0,0,0)" fill-opacity="1"></path></g></g><g><g><g><g><g transform="matrix(1,0,0,1,57.625,330.398624420166)"><path transform="matrix(0.024632999420166016,0,0,-0.024632999420166016,0,0)" d="M622 285C624 428 505 474 382 473C398 548 407 624 432 699L432 705C418 700 404 693 389 684L354 473C184 474 30 367 27 185C24 37 142 -8 268 -16L229 -289C249 -282 267 -274 282 -261C283 -179 288 -98 299 -16C481 -3 618 87 622 285ZM539 273C537 130 451 11 301 6L377 449C487 447 541 380 539 273ZM349 449L270 5C155 14 106 73 108 187C111 336 196 444 349 449Z" stroke="rgb(0,0,0)" stroke-opacity="1" stroke-width="8" fill="rgb(0,0,0)" fill-opacity="1"></path></g></g></g></g></g><g><g transform="matrix(1,0,0,1,86.90814208984375,324.189998626709)"><path transform="matrix(0.03518999862670898,0,0,-0.03518999862670898,0,0)" d="M604 75L604 125C522 125 458 189 458 271C458 351 522 416 604 416L604 466C529 466 466 426 433 367C399 426 336 466 262 466C152 466 65 379 65 271C65 161 152 75 262 75C336 75 399 114 433 174C466 114 529 75 604 75ZM407 271C407 189 341 125 262 125C180 125 116 189 116 271C116 351 180 416 262 416C341 416 407 351 407 271Z" stroke="rgb(0,0,0)" stroke-opacity="1" stroke-width="8" fill="rgb(0,0,0)" fill-opacity="1"></path></g></g><g><g><g transform="matrix(1,0,0,1,120.828125,324.189998626709)"><path transform="matrix(0.03518999862670898,0,0,-0.03518999862670898,0,0)" d="M41 143C41 74 38 44 30 4C82 -13 121 -20 167 -20C298 -20 391 50 391 148C391 321 107 228 107 358C107 408 142 436 203 436C270 436 321 401 321 354L321 331L349 331C350 389 351 413 354 444C301 462 265 469 224 469C108 469 37 414 37 324C37 276 59 242 105 221C223 169 317 195 317 109C317 55 267 17 196 17C123 17 71 52 71 102L71 143ZM611 465L602 469C551 448 499 434 446 428L446 400L483 400C523 400 527 393 527 327L527 102C527 39 524 32 490 30L444 27L444 -3C544 0 544 0 569 0C594 0 594 0 694 -3L694 27L648 30C614 32 611 39 611 102ZM565 687C535 687 509 661 509 631C509 602 535 576 564 576C593 576 620 602 620 631C620 659 593 687 565 687ZM1123 -3C1184 0 1185 0 1202 0C1216 0 1216 0 1285 -3L1285 27L1244 30C1210 32 1207 38 1207 102L1207 295C1207 412 1152 469 1040 469C1003 469 982 462 961 444L885 378L885 465L876 469C825 448 773 434 720 428L720 400L757 400C797 400 801 393 801 327L801 102C801 39 798 32 764 30L719 27L719 -3C787 -1 814 0 843 0C872 0 899 -1 967 -3L967 27L922 30C888 32 885 39 885 102L885 314C885 359 951 408 1012 408C1079 408 1123 358 1123 281Z" stroke="rgb(0,0,0)" stroke-opacity="1" stroke-width="8" fill="rgb(0,0,0)" fill-opacity="1"></path></g></g></g><g><g transform="matrix(1,0,0,1,173.1630859375,324.189998626709)"><path transform="matrix(0.03518999862670898,0,0,-0.03518999862670898,0,0)" d="M237 -16C473 -16 572 316 576 504C578 618 546 702 419 702C159 702 72 412 69 199C67 80 101 -16 237 -16ZM401 676C536 676 506 491 485 381L169 381C194 485 272 676 401 676ZM253 13C102 13 147 261 163 349L479 349C454 237 396 13 253 13Z" stroke="rgb(0,0,0)" stroke-opacity="1" stroke-width="8" fill="rgb(0,0,0)" fill-opacity="1"></path></g></g></g></g><g><g><g><g transform="matrix(1,0,0,1,304,435.189998626709)"><path transform="matrix(0.03518999862670898,0,0,-0.03518999862670898,0,0)" d="M328 111L304 94C251 56 203 36 167 36C120 36 91 73 91 133C91 158 94 185 99 214C116 218 225 248 250 259C335 296 374 342 374 404C374 451 340 482 290 482C222 496 112 423 75 349C45 299 15 180 15 113C15 35 59 -11 131 -11C188 -11 244 17 336 92ZM113 274C130 343 150 386 179 412C197 428 228 440 252 440C281 440 300 420 300 388C300 344 265 297 213 272C185 258 149 247 104 237Z" stroke="rgb(0,0,0)" stroke-opacity="1" stroke-width="24" fill="rgb(0,0,0)" fill-opacity="1"></path></g></g><g><g><g><g><g transform="matrix(1,0,0,1,319.625,441.398624420166)"><path transform="matrix(0.024632999420166016,0,0,-0.024632999420166016,0,0)" d="M237 -16C473 -16 572 316 576 504C578 618 546 702 419 702C159 702 72 412 69 199C67 80 101 -16 237 -16ZM401 676C536 676 506 491 485 381L169 381C194 485 272 676 401 676ZM253 13C102 13 147 261 163 349L479 349C454 237 396 13 253 13Z" stroke="rgb(0,0,0)" stroke-opacity="1" stroke-width="8" fill="rgb(0,0,0)" fill-opacity="1"></path></g></g></g></g></g></g></g><g><g><g><g transform="matrix(1,0,0,1,438,325.189998626709)"><path transform="matrix(0.03518999862670898,0,0,-0.03518999862670898,0,0)" d="M328 111L304 94C251 56 203 36 167 36C120 36 91 73 91 133C91 158 94 185 99 214C116 218 225 248 250 259C335 296 374 342 374 404C374 451 340 482 290 482C222 496 112 423 75 349C45 299 15 180 15 113C15 35 59 -11 131 -11C188 -11 244 17 336 92ZM113 274C130 343 150 386 179 412C197 428 228 440 252 440C281 440 300 420 300 388C300 344 265 297 213 272C185 258 149 247 104 237Z" stroke="rgb(0,0,0)" stroke-opacity="1" stroke-width="24" fill="rgb(0,0,0)" fill-opacity="1"></path></g></g><g><g><g><g><g transform="matrix(1,0,0,1,451.875,321.189998626709)"><path transform="matrix(0.03518999862670898,0,0,-0.03518999862670898,0,0)" d="M104 470C161 543 199 610 233 696L220 709C184 697 174 694 123 679C117 599 93 533 45 456L60 446Z" stroke="rgb(0,0,0)" stroke-opacity="1" stroke-width="8" fill="rgb(0,0,0)" fill-opacity="1"></path></g></g></g></g><g><g><g><g transform="matrix(1,0,0,1,453.625,334.898624420166)"><path transform="matrix(0.024632999420166016,0,0,-0.024632999420166016,0,0)" d="M622 285C624 428 505 474 382 473C398 548 407 624 432 699L432 705C418 700 404 693 389 684L354 473C184 474 30 367 27 185C24 37 142 -8 268 -16L229 -289C249 -282 267 -274 282 -261C283 -179 288 -98 299 -16C481 -3 618 87 622 285ZM539 273C537 130 451 11 301 6L377 449C487 447 541 380 539 273ZM349 449L270 5C155 14 106 73 108 187C111 336 196 444 349 449Z" stroke="rgb(0,0,0)" stroke-opacity="1" stroke-width="8" fill="rgb(0,0,0)" fill-opacity="1"></path></g></g></g></g></g></g></g><g><g><g><g transform="matrix(1,0,0,1,292,167.18999862670898)"><path transform="matrix(0.03518999862670898,0,0,-0.03518999862670898,0,0)" d="M328 111L304 94C251 56 203 36 167 36C120 36 91 73 91 133C91 158 94 185 99 214C116 218 225 248 250 259C335 296 374 342 374 404C374 451 340 482 290 482C222 496 112 423 75 349C45 299 15 180 15 113C15 35 59 -11 131 -11C188 -11 244 17 336 92ZM113 274C130 343 150 386 179 412C197 428 228 440 252 440C281 440 300 420 300 388C300 344 265 297 213 272C185 258 149 247 104 237Z" stroke="rgb(0,0,0)" stroke-opacity="1" stroke-width="24" fill="rgb(0,0,0)" fill-opacity="1"></path></g></g><g><g><g><g><g transform="matrix(1,0,0,1,308.609375,152.63299942016602)"><path transform="matrix(0.024632999420166016,0,0,-0.024632999420166016,0,0)" d="M104 470C161 543 199 610 233 696L220 709C184 697 174 694 123 679C117 599 93 533 45 456L60 446ZM381 470C438 543 476 610 510 696L497 709C461 697 451 694 400 679C394 599 370 533 322 456L337 446Z" stroke="rgb(0,0,0)" stroke-opacity="1" stroke-width="8" fill="rgb(0,0,0)" fill-opacity="1"></path></g></g></g></g><g><g><g><g transform="matrix(1,0,0,1,307.625,177.00799942016602)"><path transform="matrix(0.024632999420166016,0,0,-0.024632999420166016,0,0)" d="M237 -16C473 -16 572 316 576 504C578 618 546 702 419 702C159 702 72 412 69 199C67 80 101 -16 237 -16ZM401 676C536 676 506 491 485 381L169 381C194 485 272 676 401 676ZM253 13C102 13 147 261 163 349L479 349C454 237 396 13 253 13Z" stroke="rgb(0,0,0)" stroke-opacity="1" stroke-width="8" fill="rgb(0,0,0)" fill-opacity="1"></path></g></g></g></g></g></g></g><g><g><g><g transform="matrix(1,0,0,1,288,212.47999954223633)"><path transform="matrix(0.024479999542236328,0,0,-0.024479999542236328,0,0)" d="M400 -16C446 -16 513 54 545 84L545 97L532 97C513 79 489 55 462 55C417 55 424 184 424 216C474 278 520 343 558 413C551 428 544 444 536 459L525 459C511 391 456 315 420 257C422 336 445 472 332 473C164 473 27 243 24 93C23 33 43 -16 111 -16C203 -16 297 64 357 131C357 96 348 -15 400 -16ZM284 437C371 437 358 224 357 164C314 113 233 28 162 28C109 28 98 70 99 115C100 202 175 437 284 437Z" stroke="rgb(0,0,0)" stroke-opacity="1" stroke-width="8" fill="rgb(0,0,0)" fill-opacity="1"></path></g></g></g></g><g><g><g><g transform="matrix(1,0,0,1,503,439.189998626709)"><path transform="matrix(0.03518999862670898,0,0,-0.03518999862670898,0,0)" d="M328 111L304 94C251 56 203 36 167 36C120 36 91 73 91 133C91 158 94 185 99 214C116 218 225 248 250 259C335 296 374 342 374 404C374 451 340 482 290 482C222 496 112 423 75 349C45 299 15 180 15 113C15 35 59 -11 131 -11C188 -11 244 17 336 92ZM113 274C130 343 150 386 179 412C197 428 228 440 252 440C281 440 300 420 300 388C300 344 265 297 213 272C185 258 149 247 104 237Z" stroke="rgb(0,0,0)" stroke-opacity="1" stroke-width="24" fill="rgb(0,0,0)" fill-opacity="1"></path></g></g><g><g><g><g><g transform="matrix(1,0,0,1,516.875,435.189998626709)"><path transform="matrix(0.03518999862670898,0,0,-0.03518999862670898,0,0)" d="M104 470C161 543 199 610 233 696L220 709C184 697 174 694 123 679C117 599 93 533 45 456L60 446Z" stroke="rgb(0,0,0)" stroke-opacity="1" stroke-width="8" fill="rgb(0,0,0)" fill-opacity="1"></path></g></g></g></g><g><g><g><g transform="matrix(1,0,0,1,518.625,448.898624420166)"><path transform="matrix(0.024632999420166016,0,0,-0.024632999420166016,0,0)" d="M237 -16C473 -16 572 316 576 504C578 618 546 702 419 702C159 702 72 412 69 199C67 80 101 -16 237 -16ZM401 676C536 676 506 491 485 381L169 381C194 485 272 676 401 676ZM253 13C102 13 147 261 163 349L479 349C454 237 396 13 253 13Z" stroke="rgb(0,0,0)" stroke-opacity="1" stroke-width="8" fill="rgb(0,0,0)" fill-opacity="1"></path></g></g></g></g></g></g></g><g><g><g><g transform="matrix(1,0,0,1,123,166.18999862670898)"><path transform="matrix(0.03518999862670898,0,0,-0.03518999862670898,0,0)" d="M328 111L304 94C251 56 203 36 167 36C120 36 91 73 91 133C91 158 94 185 99 214C116 218 225 248 250 259C335 296 374 342 374 404C374 451 340 482 290 482C222 496 112 423 75 349C45 299 15 180 15 113C15 35 59 -11 131 -11C188 -11 244 17 336 92ZM113 274C130 343 150 386 179 412C197 428 228 440 252 440C281 440 300 420 300 388C300 344 265 297 213 272C185 258 149 247 104 237Z" stroke="rgb(0,0,0)" stroke-opacity="1" stroke-width="24" fill="rgb(0,0,0)" fill-opacity="1"></path></g></g><g><g><g><g><g transform="matrix(1,0,0,1,139.609375,151.63299942016602)"><path transform="matrix(0.024632999420166016,0,0,-0.024632999420166016,0,0)" d="M104 470C161 543 199 610 233 696L220 709C184 697 174 694 123 679C117 599 93 533 45 456L60 446ZM381 470C438 543 476 610 510 696L497 709C461 697 451 694 400 679C394 599 370 533 322 456L337 446Z" stroke="rgb(0,0,0)" stroke-opacity="1" stroke-width="8" fill="rgb(0,0,0)" fill-opacity="1"></path></g></g></g></g><g><g><g><g transform="matrix(1,0,0,1,138.625,176.00799942016602)"><path transform="matrix(0.024632999420166016,0,0,-0.024632999420166016,0,0)" d="M622 285C624 428 505 474 382 473C398 548 407 624 432 699L432 705C418 700 404 693 389 684L354 473C184 474 30 367 27 185C24 37 142 -8 268 -16L229 -289C249 -282 267 -274 282 -261C283 -179 288 -98 299 -16C481 -3 618 87 622 285ZM539 273C537 130 451 11 301 6L377 449C487 447 541 380 539 273ZM349 449L270 5C155 14 106 73 108 187C111 336 196 444 349 449Z" stroke="rgb(0,0,0)" stroke-opacity="1" stroke-width="8" fill="rgb(0,0,0)" fill-opacity="1"></path></g></g></g></g></g></g></g><g><g><g><g transform="matrix(1,0,0,1,191,130.47999954223633)"><path transform="matrix(0.024479999542236328,0,0,-0.024479999542236328,0,0)" d="M400 -16C446 -16 513 54 545 84L545 97L532 97C513 79 489 55 462 55C417 55 424 184 424 216C474 278 520 343 558 413C551 428 544 444 536 459L525 459C511 391 456 315 420 257C422 336 445 472 332 473C164 473 27 243 24 93C23 33 43 -16 111 -16C203 -16 297 64 357 131C357 96 348 -15 400 -16ZM284 437C371 437 358 224 357 164C314 113 233 28 162 28C109 28 98 70 99 115C100 202 175 437 284 437Z" stroke="rgb(0,0,0)" stroke-opacity="1" stroke-width="8" fill="rgb(0,0,0)" fill-opacity="1"></path></g></g></g></g></svg>
</svg>
